<?xml version="1.0" encoding="utf-8"?>
<!-- Generator: Adobe Illustrator 26.0.3, SVG Export Plug-In . SVG Version: 6.00 Build 0)  -->
<svg version="1.0" id="katman_1" xmlns="http://www.w3.org/2000/svg" xmlns:xlink="http://www.w3.org/1999/xlink" x="0px" y="0px"
	 viewBox="0 0 600 450" style="enable-background:new 0 0 600 450;" xml:space="preserve">
<style type="text/css">
	.st0{fill:#404040;}
</style>
<path id="SvgjsPath1035" class="st0" d="M65.8,228.6c-0.9,0-1.6-0.7-1.6-1.6v-22.4c0-0.9,0.7-1.6,1.6-1.6h10
	c7.3,0,13.1,4.5,13.4,12.1c-0.3,7.7-6.2,13.4-13.3,13.4H65.8z M62.6,251.7c0.8,0,1.6-0.4,1.6-1.1v-16c0-0.9,0.7-1.6,1.6-1.6h12.1
	c9.2,0,16.9-7.1,16.9-16.8c0-0.2,0-0.3,0-0.5c0-0.2,0-0.4,0-0.5c0-9.6-7.7-16.6-17-16.6H60.5c-0.9,0-1.6,0.7-1.6,1.6V250
	c0,1,1,1.7,1.9,1.7H62.6z"/>
<path id="SvgjsPath1036" class="st0" d="M152.1,198.5h-1.8h-27.1h-1.8c-0.9,0-1.6,0.7-1.6,1.6v1.1v47.8v1.1c0,0.9,0.7,1.6,1.6,1.6
	h1.8h27.1h1.8c0.9,0,1.6-0.7,1.6-1.6v-0.5v-0.5c0-0.9-0.7-1.6-1.6-1.6h-1.8h-23.5c-0.9,0-1.6-0.7-1.6-1.6V228c0-0.9,0.7-1.6,1.6-1.6
	h19.8h1.8c0.9,0,1.6-0.7,1.6-1.6v-0.1c0-0.2,0,0,0-0.4c0-0.5,0-0.4,0-0.6v-0.1c0-0.9-0.7-1.6-1.6-1.6h-1.8h-19.8
	c-0.9,0-1.6-0.7-1.6-1.6v-16.3c0-0.9,0.7-1.6,1.6-1.6h23.5h1.8c0.9,0,1.6-0.7,1.6-1.6v-0.1v-1v-0.1
	C153.6,199.2,152.9,198.5,152.1,198.5"/>
<path id="SvgjsPath1037" class="st0" d="M185.6,227c-0.9,0-1.6-0.7-1.6-1.6v-20.9c0-0.9,0.7-1.6,1.6-1.6H198
	c7.1,0,12.1,4.5,12.4,11.3c-0.3,7.1-5.3,12.7-12.3,12.7H185.6z M182.6,251.6c0.9,0,1.4-0.4,1.4-1v-17.5c0-0.9,0.7-1.6,1.6-1.6H198
	c0.5,0.1,1,0.3,1.2,0.8l10.3,18.4c0.4,0.7,0.7,0.9,1.6,0.9h3.9c0,0,1.6,0,0.3-2.4l-10-17.6l0.1,0.1c-0.5-0.9,0.7-1.3,0.7-1.3
	c5.9-1.9,10.5-9.2,10.3-16.3c0.2-5.7-2.6-11.4-10.1-14.5c-0.4-0.2-2.9-1.1-7.1-1.1h-19.6c-0.6,0-1,0.4-1,1V250
	c0,0.9,0.7,1.6,1.6,1.6H182.6z"/>
<path id="SvgjsPath1038" class="st0" d="M247,251.6h0.8c0.8,0,1.2-0.4,1.2-1v-1.1V230c0-0.9,0.7-1.5,1.6-1.5H271h1.8
	c1.1,0,1-1.3,1-2.2c0,0,0,0,0,0c0-0.3,0-0.7,0-1c0-0.5-0.4-1-1-1H271h-20.5c-0.9,0-1.6-0.7-1.6-1.6v-18.4c0-0.9,0.7-1.6,1.6-1.6
	h23.6h1.8c0.9,0,1.6-0.7,1.6-1.6v-0.1v-1v-0.1c0-0.9-0.7-1.6-1.6-1.6h-1.8H247h-1.8c-0.9,0-1.6,0.7-1.6,1.6v1.1v47.8v1.1
	c0,0.9,0.7,1.6,1.6,1.6h0.8H247z"/>
<path id="SvgjsPath1039" class="st0" d="M301.6,217.8c0.4-1.1,0.9-2.1,1.4-3c-0.5-0.5-1.8-1.5-1.8-1.6c6.9-8.2,15.9-10.7,23.8-9.3
	c1.6,0.2,3.2,0.6,4.9,1.2c11.4,4.2,17.1,16.7,12.8,28c-0.4,1.1-1,2.2-1.5,3.2c0.6,0.5,2,1.6,1.9,1.6c-7.6,9-17.8,11.1-26.3,8.6
	c-0.8-0.2-1.6-0.4-2.4-0.7C303.1,241.6,297.3,229,301.6,217.8z M340.4,198.5c-1.4,1.4-3.2,3-4,3.8c-1.3-0.8-2.8-1.4-4.3-2
	c-12.9-4.8-26.5,0.6-34,10.7c-3.9,5.8-6.2,12.9-5.7,20.2c0,0,0,13.8,12.7,21.9c1-1.4,2.4-3.2,3.2-4.4c1.4,0.8,2.9,1.5,4.5,2.1
	c14.6,5.4,30.8-1.5,36.1-15.4c0,0,3.9-8.5,2.6-17.8C351.6,217.6,350.6,205.1,340.4,198.5z"/>
<path id="SvgjsPath1040" class="st0" d="M380.5,227c-0.9,0-1.6-0.7-1.6-1.6v-20.9c0-0.9,0.7-1.6,1.6-1.6h12.4
	c7.1,0,12.1,4.5,12.4,11.3C405,221.4,400,227,393,227H380.5z M377.4,251.6c0.9,0,1.4-0.4,1.4-1v-17.5c0-0.9,0.7-1.6,1.6-1.6h12.5
	c0.5,0.1,1,0.3,1.2,0.8l10.3,18.4c0.4,0.7,0.7,0.9,1.6,0.9h3.9c0,0,1.6,0,0.3-2.4l-10-17.6l0.1,0.1c-0.5-0.9,0.7-1.3,0.7-1.3
	c5.9-1.9,10.5-9.2,10.3-16.3c0.2-5.7-2.6-11.4-10.1-14.5c-0.4-0.2-2.9-1.1-7.1-1.1h-19.6c-0.6,0-1,0.4-1,1V250
	c0,0.9,0.7,1.6,1.6,1.6H377.4z"/>
<path id="SvgjsPath1041" class="st0" d="M483.2,240.9c0.6,0.5,1.9,1.9,0.6,2.9c-5.6,4.4-11.7,7.2-18.3,7.2c-0.3,0-0.6,0-0.9,0
	c-0.3,0-0.6,0-0.9,0c-15,0-27.2-11.7-27.2-26.7c0-0.2,0-0.3,0-0.5s0-0.3,0-0.5c0-14.9,12.2-26.8,27.2-26.8c0.2,0,0.4,0,0.7,0
	c0.4,0,0.8,0,1.1,0c7.7,0,13.4,2.5,18.2,6.9c1.5,1.3,0.1,2.4,0.1,2.4l-1.2,1.1c-0.4,0.4-1.7,1.4-2.3,0.9c-0.7-0.7-0.9-0.8-0.9-0.8
	l0.9,0.8c-0.7-0.6-0.4-0.3-0.9-0.8c-4.1-3.6-9.2-5.8-14.9-6c-12.5,0.5-22.3,10.6-22.6,22.9c0.3,12.2,10,22.3,22.5,22.7
	c6-0.2,10.6-2.7,14.9-6.2C479.5,240.4,481.3,239,483.2,240.9"/>
<path id="SvgjsPath1042" class="st0" d="M539.8,198.5H538h-27.1h-1.8c-0.9,0-1.6,0.7-1.6,1.6v1.1v47.8v1.1c0,0.9,0.7,1.6,1.6,1.6
	h1.8H538h1.8c0.9,0,1.6-0.7,1.6-1.6v-0.5v-0.5c0-0.9-0.7-1.6-1.6-1.6H538h-23.5c-0.9,0-1.6-0.7-1.6-1.6V228c0-0.9,0.7-1.6,1.6-1.6
	h19.8h1.8c0.9,0,1.6-0.7,1.6-1.6v-0.1c0-0.2,0,0,0-0.4c0-0.5,0-0.4,0-0.6v-0.1c0-0.9-0.7-1.6-1.6-1.6h-1.8h-19.8
	c-0.9,0-1.6-0.7-1.6-1.6v-16.3c0-0.9,0.7-1.6,1.6-1.6H538h1.8c0.9,0,1.6-0.7,1.6-1.6v-0.1v-1v-0.1
	C541.4,199.2,540.7,198.5,539.8,198.5"/>
</svg>
